<?xml version="1.0" encoding="UTF-8"?>
<svg width="17px" height="11px" viewBox="0 0 17 11" version="1.1" xmlns="http://www.w3.org/2000/svg" xmlns:xlink="http://www.w3.org/1999/xlink">
    <!-- Generator: Sketch 48.1 (47250) - http://www.bohemiancoding.com/sketch -->
    <title>Shape</title>
    <desc>Created with Sketch.</desc>
    <defs></defs>
    <g id="ETC-homepage" stroke="none" stroke-width="1" fill="none" fill-rule="evenodd" transform="translate(-269.000000, -4482.000000)">
        <g id="Group-9" transform="translate(0.000000, 4203.000000)" fill="#FFFFFF" fill-rule="nonzero">
            <path d="M285.049169,279 L269.950831,279 C269.427874,279 269,279.427483 269,279.949961 L269,289.050039 C269,289.572517 269.427874,290 269.950831,290 L285.049169,290 C285.572126,290 286,289.572517 286,289.050039 L286,279.949961 C286,279.427483 285.572126,279 285.049169,279 Z M285.788364,280.301219 L277.706302,285.981987 C277.655162,286.018048 277.594096,286.037396 277.531501,286.03737 C277.527489,286.03737 277.523514,286.036819 277.519521,286.036667 C277.515508,286.036819 277.511553,286.03737 277.50754,286.03737 C277.447048,286.03737 277.385948,286.019415 277.33272,285.981987 L269.250658,280.301219 C269.113225,280.204627 269.080193,280.014996 269.176893,279.877688 C269.273573,279.740362 269.463378,279.707379 269.600811,279.80399 L277.519521,285.369946 L285.438249,279.80399 C285.575682,279.707379 285.765487,279.740381 285.862168,279.877688 C285.958848,280.014996 285.925816,280.204608 285.788364,280.301219 Z" id="Shape"></path>
        </g>
    </g>
</svg>