<?xml version="1.0" encoding="UTF-8"?>
<svg width="16px" height="16px" viewBox="0 0 16 16" version="1.1" xmlns="http://www.w3.org/2000/svg" xmlns:xlink="http://www.w3.org/1999/xlink">
    <!-- Generator: Sketch 48.1 (47250) - http://www.bohemiancoding.com/sketch -->
    <title>facebook (1)</title>
    <desc>Created with Sketch.</desc>
    <defs></defs>
    <g id="Resource-网址导航" stroke="none" stroke-width="1" fill="none" fill-rule="evenodd" transform="translate(-1230.000000, -1628.000000)">
        <g id="Group-9" transform="translate(0.000000, 1452.000000)" fill="#FFFFFF" fill-rule="nonzero">
            <g id="facebook-(1)" transform="translate(1230.000000, 176.000000)">
                <path d="M15.0896,0 C15.3216,0 15.5312,0.0866339116 15.7184,0.261506066 C15.9056,0.43477389 16,0.638524015 16,0.869547779 L16,15.1304522 C16,15.3630803 15.9056,15.5652261 15.7184,15.7384939 C15.5296,15.9133661 15.32,16 15.0896,16 L11.0144,16 L11.0144,9.82653164 L13.096,9.82653164 L13.4,7.39115612 L11.016,7.39115612 L11.016,5.80126341 C11.016,5.00711922 11.4208,4.60924496 12.2304,4.60924496 L13.488,4.60924496 L13.488,2.51880076 C13.0544,2.43377118 12.4336,2.39045423 11.624,2.39045423 C10.6992,2.39045423 9.9552,2.6728166 9.3904,3.23754136 C8.824,3.80387045 8.5424,4.59480598 8.5424,5.60874361 L8.5424,7.39115612 L6.4608,7.39115612 L6.4608,9.82653164 L8.5424,9.82653164 L8.5424,16 L0.8672,16 C0.6352,16 0.4336,15.9133661 0.2608,15.7384939 C0.0864,15.5652261 0,15.3630803 0,15.1304522 L0,0.869547779 C0,0.638524015 0.0864,0.43477389 0.2608,0.261506066 C0.4336,0.0882382433 0.6368,1.39153593e-17 0.8672,1.39153593e-17 L15.0896,0 Z" id="Shape"></path>
            </g>
        </g>
    </g>
</svg>