<?xml version="1.0" encoding="UTF-8"?>
<svg width="13px" height="13px" viewBox="0 0 13 13" version="1.1" xmlns="http://www.w3.org/2000/svg" xmlns:xlink="http://www.w3.org/1999/xlink">
    <!-- Generator: Sketch 48.1 (47250) - http://www.bohemiancoding.com/sketch -->
    <title>Shape</title>
    <desc>Created with Sketch.</desc>
    <defs></defs>
    <g id="ETC-homepage" stroke="none" stroke-width="1" fill="none" fill-rule="evenodd" transform="translate(-130.000000, -4481.000000)">
        <g id="Group-9" transform="translate(0.000000, 4203.000000)" fill="#FFFFFF" fill-rule="nonzero">
            <path d="M132.94373,279.409394 C132.94373,280.187902 132.376806,280.818589 131.444498,280.818589 C130.56691,280.818589 130,280.187902 130,279.409394 C130,278.612344 130.585769,278 131.481183,278 C132.376806,278 132.925681,278.612344 132.94373,279.409394 Z M130.073605,290.999377 L130.073605,281.931877 L132.852886,281.931877 L132.852886,290.999377 L130.073605,290.999377 Z M134.515952,284.824303 C134.515952,283.693294 134.479267,282.747801 134.442386,281.93189 L136.856073,281.93189 L136.984608,283.193013 L137.039537,283.193013 C137.404922,282.599158 138.301147,281.728072 139.800574,281.728072 C141.628506,281.728072 143,282.970532 143,285.640837 L143,291 L140.220928,291 L140.220928,285.974755 C140.220928,284.806583 139.817851,284.008963 138.812539,284.008963 C138.044849,284.008963 137.588425,284.54666 137.386887,285.065895 C137.313321,285.251172 137.295233,285.510484 137.295233,285.770579 L137.295233,291 L134.515952,291 L134.515952,284.824303 Z" id="Shape"></path>
        </g>
    </g>
</svg>