<?xml version="1.0" encoding="UTF-8"?>
<svg width="19px" height="30px" viewBox="0 0 19 30" version="1.1" xmlns="http://www.w3.org/2000/svg" xmlns:xlink="http://www.w3.org/1999/xlink">
    <!-- Generator: Sketch 48.1 (47250) - http://www.bohemiancoding.com/sketch -->
    <title>鼠标</title>
    <desc>Created with Sketch.</desc>
    <defs></defs>
    <g id="ETC-homepage" stroke="none" stroke-width="1" fill="none" fill-rule="evenodd" transform="translate(-1153.000000, -3796.000000)">
        <g id="Group-19" transform="translate(1153.000000, 3796.000000)" fill-rule="nonzero">
            <g id="鼠标">
                <path d="M11.4624892,29.5555556 C6.3721389,29.5436307 2.24900209,25.9568305 2.23529412,21.5286316 L2.23529412,12.9533322 C2.24869762,8.52494498 6.3719232,4.93785198 11.4624892,4.92592593 C11.9217849,4.92592593 12.2941176,5.24982573 12.2941176,5.64937638 C12.2941176,6.04892704 11.9217849,6.37282684 11.4624892,6.37282684 C7.29051076,6.38473969 3.91193945,9.32404276 3.89855105,12.9533322 L3.89855105,21.5286316 C3.91224354,25.1577327 7.29072628,28.0967433 11.4624892,28.1086546 C11.9217849,28.1086546 12.2941176,28.4325544 12.2941176,28.8321051 C12.2941176,29.2316558 11.9217849,29.5555556 11.4624892,29.5555556 Z" id="Shape" fill="#AAADB7"></path>
                <path d="M8.38210665,15.762963 C6.8406495,15.7610939 5.59121987,14.5309846 5.58823529,13.0122941 L5.58823529,10.6343341 C5.58823529,9.1139756 6.83920438,7.88148148 8.38235294,7.88148148 C9.92550151,7.88148148 11.1764706,9.1139756 11.1764706,10.6343341 L11.1764706,13.0122941 C11.1734853,14.5311737 9.92375614,15.7613611 8.38210665,15.762963 Z M8.38210665,9.33567681 C7.65489639,9.33674777 7.06595206,9.9178629 7.06595287,10.6343341 L7.06595287,13.0122941 C7.06595287,13.7285847 7.65532526,14.3092529 8.38235294,14.3092529 C9.10938063,14.3092529 9.69875301,13.7285847 9.69875301,13.0122941 L9.69875301,10.6343341 C9.69848172,9.91786317 9.10931706,9.33696528 8.38210665,9.33616211 L8.38210665,9.33567681 Z" id="Shape" fill="#303030"></path>
                <path d="M9.4997146,29.5555556 C4.25880189,29.5436296 0.0137993668,25.9565717 0,21.5282279 L0,12.9530124 C3.24458485e-15,8.51977497 4.25329488,4.92592593 9.5,4.92592593 C14.7467051,4.92592593 19,8.51977497 19,12.9530124 L19,21.5282279 C18.9861992,25.9567594 14.7408502,29.5438945 9.4997146,29.5555556 Z M9.4997146,6.37305382 C5.20474125,6.38496507 1.72647709,9.3239469 1.71238021,12.9530124 L1.71238021,21.5282279 C1.71238021,25.1623719 5.19901635,28.1084277 9.5,28.1084277 C13.8009836,28.1084277 17.2876198,25.1623719 17.2876198,21.5282279 L17.2876198,12.9530124 C17.2735212,9.32375941 13.7949109,6.38470054 9.4997146,6.37305382 Z" id="Shape" fill="#00C852"></path>
                <path d="M9.87722148,5.91110947 C9.43415508,5.91178675 9.05144521,5.65985863 8.96095932,5.30795752 C8.87047344,4.95605642 9.09710386,4.60098894 9.50354495,4.4578752 C10.0017803,4.28001065 10.4794635,3.9470199 10.4850686,3.81867445 C10.4850686,3.80553673 10.4514378,3.73327926 10.3081951,3.61655564 C9.52222878,2.98341846 9.48361553,2.36998786 9.58949055,1.96676083 C9.90088766,0.793461115 11.7692703,0.163861012 12.1429469,0.0496638822 C12.4554523,-0.0468268717 12.8076664,-0.000721910533 13.0669136,0.170611472 C13.3261608,0.341944855 13.4530553,0.612477041 13.3997971,0.88030117 C13.346539,1.1481253 13.1212193,1.37255251 12.8087139,1.46904325 C12.151666,1.67116206 11.4759343,2.07034672 11.4205056,2.28459266 C11.4105409,2.32198464 11.4790482,2.42253875 11.6278961,2.54229415 C12.3652844,3.13652346 12.4132396,3.71913094 12.3235572,4.10315668 C12.0744395,5.16023808 10.5523304,5.74284556 10.2496524,5.84895793 C10.1320728,5.89017045 10.0053039,5.91132575 9.87722148,5.91110947 Z" id="Shape" fill="#00C852"></path>
            </g>
        </g>
    </g>
</svg>