<?xml version="1.0" encoding="UTF-8"?>
<svg width="18px" height="22px" viewBox="0 0 18 22" version="1.1" xmlns="http://www.w3.org/2000/svg" xmlns:xlink="http://www.w3.org/1999/xlink">
    <!-- Generator: Sketch 48.1 (47250) - http://www.bohemiancoding.com/sketch -->
    <title>技术文档</title>
    <desc>Created with Sketch.</desc>
    <defs></defs>
    <g id="Resource-知识库" stroke="none" stroke-width="1" fill="none" fill-rule="evenodd" transform="translate(-1217.000000, -132.000000)">
        <g id="技术文档" transform="translate(1218.000000, 133.000000)" fill-rule="nonzero">
            <path d="M0.888888889,2.30769231 C0.888888889,1.51515153 1.46666666,0.909090909 2.22222222,0.909090909 L10.6666667,0.909090909 L10.6666667,5.10489511 L10.6666667,0.909090909 L2.22222222,0.909090909 C1.46666668,0.909090909 0.888888889,1.51515153 0.888888889,2.30769231 L0.888888889,19.0909091 L0.888888889,2.30769231 Z M10.8888889,0.909090909 L16,6.27039628 L10.8888889,0.909090909 Z" id="Shape" fill="#00C852"></path>
            <path d="M10.6666667,0 L1.77777778,0 C0.799999998,0 0,0.818181816 0,1.81818182 L0,18.1818182 C0,19.1818182 0.799999998,20 1.77777778,20 L14.2222222,20 C15.2,20 16,19.1818182 16,18.1818182 L16,5.45454545 L10.6666667,0 Z M12,14.5454546 L4.00000001,14.5454546 C3.73333335,14.5454546 3.55555557,14.3636364 3.55555555,14.0909091 C3.55555553,13.8181818 3.73333333,13.6363636 4.00000001,13.6363636 L12,13.6363636 C12.2666667,13.6363636 12.4444444,13.8181818 12.4444444,14.0909091 C12.4444445,14.3636363 12.2666667,14.5454545 12,14.5454546 Z M12,11.3636364 L4.00000001,11.3636364 C3.73333335,11.3636364 3.55555557,11.1818182 3.55555555,10.9090909 C3.55555553,10.6363637 3.73333333,10.4545455 4.00000001,10.4545454 L12,10.4545454 C12.2666667,10.4545454 12.4444444,10.6363636 12.4444444,10.9090909 C12.4444445,11.1818182 12.2666667,11.3636364 12,11.3636364 Z M11.5555556,5.45454545 C11.0666667,5.45454545 10.6666667,5.04545453 10.6666667,4.54545455 L10.6666667,1.31818182 L14.7111111,5.45454545 L11.5555556,5.45454545 Z" id="Shape" stroke="#00C852"></path>
        </g>
    </g>
</svg>