<?xml version="1.0" encoding="UTF-8"?>
<svg width="14px" height="17px" viewBox="0 0 14 17" version="1.1" xmlns="http://www.w3.org/2000/svg" xmlns:xlink="http://www.w3.org/1999/xlink">
    <!-- Generator: Sketch 48.1 (47250) - http://www.bohemiancoding.com/sketch -->
    <title>qq (1) copy 2</title>
    <desc>Created with Sketch.</desc>
    <defs></defs>
    <g id="Resource-网址导航" stroke="none" stroke-width="1" fill="none" fill-rule="evenodd" transform="translate(-1083.000000, -1665.000000)">
        <g id="Group-9" transform="translate(0.000000, 1452.000000)" fill="#FFFFFF" fill-rule="nonzero">
            <g id="qq-(1)-copy-2" transform="translate(1083.000000, 213.000000)">
                <path d="M13.874686,10.1126605 C13.874686,10.1126605 13.4101738,8.37195412 12.5585859,7.31095951 C12.5585859,7.31095951 13.0230981,6.43231914 12.2489111,5.22211907 C12.2489111,5.22211907 12.0631134,0 6.99999107,0 C1.93686877,0 1.75108888,5.2221011 1.75108888,5.2221011 C0.976919732,6.43230116 1.44141408,7.31094154 1.44141408,7.31094154 C0.58982623,8.37193615 0.125314027,10.1126425 0.125314027,10.1126425 C-0.308219983,12.2346497 0.512407529,12.6159505 0.636266737,12.6490993 C0.760125945,12.6822481 1.03884041,12.3506884 1.13173928,12.2014829 C1.22463815,12.0522775 1.42593391,11.5715123 1.47237442,11.5383636 C1.51881493,11.5052148 1.59625148,11.7870333 1.59625148,11.7870333 C1.92140645,12.8646203 2.6181569,13.6437964 2.6181569,13.6437964 C1.92140645,13.9090405 1.44141408,14.4229724 1.44141408,14.4229724 C1.44141408,14.4229724 0.558848037,15.7823779 2.91235154,16.0476401 C5.26585503,16.3129022 6.81419333,15.483985 6.81419333,15.483985 L7.18580667,15.483985 C7.18580667,15.483985 8.73416282,16.3129022 11.0876485,16.0476401 C13.4411341,15.7823779 12.5585859,14.4229724 12.5585859,14.4229724 C12.5585859,14.4229724 12.0785935,13.9090405 11.3818431,13.6437964 C11.3818431,13.6437964 12.0785935,12.8646203 12.4037485,11.7870333 C12.4037485,11.7870333 12.4811672,11.5051968 12.5276256,11.5383636 C12.5740839,11.5715303 12.7753619,12.0522955 12.8682607,12.2014829 C12.9611596,12.3506884 13.2398741,12.6822481 13.3637333,12.6490993 C13.4875925,12.6159505 14.30822,12.2346677 13.874686,10.1126605 Z" id="Shape"></path>
            </g>
        </g>
    </g>
</svg>