<?xml version="1.0" encoding="UTF-8"?>
<svg width="11px" height="16px" viewBox="0 0 11 16" version="1.1" xmlns="http://www.w3.org/2000/svg" xmlns:xlink="http://www.w3.org/1999/xlink">
    <!-- Generator: Sketch 48.1 (47250) - http://www.bohemiancoding.com/sketch -->
    <title>Shape</title>
    <desc>Created with Sketch.</desc>
    <defs></defs>
    <g id="ETC-homepage" stroke="none" stroke-width="1" fill="none" fill-rule="evenodd" transform="translate(-225.000000, -4479.000000)">
        <g id="Group-9" transform="translate(0.000000, 4203.000000)" fill="#FFFFFF" fill-rule="nonzero">
            <path d="M231.812847,282.534987 L232.983868,277.235094 C232.983868,277.235094 233.154474,276.288062 232.203198,276.042611 C231.197528,275.783141 230.902071,276.793431 230.902071,276.793431 L229.557564,282.534987 L228.282084,277.064485 C228.282084,277.064485 228.026025,276.072958 226.955294,276.307593 C226.040002,276.508164 226.131953,277.443468 226.131953,277.443468 L227.546225,285.240132 C227.546225,285.240132 226.955294,284.434098 226.955294,284.080784 C226.955294,283.727469 227.042037,283.020808 227.042037,283.020808 C227.042037,283.020808 227.150461,282.601241 226.608322,282.822064 C226.066183,283.042888 225.068648,284.069744 225.003603,284.665994 C224.938558,285.262243 225.773495,287.014106 225.951575,287.506321 C226.255167,288.345473 226.72238,289.321442 227.31737,290.29012 C228.494968,292.207289 232.615199,293.024362 234.545208,289.976926 C236.112638,287.501995 235.998139,285.251171 235.998139,285.251171 C235.998139,285.251171 236.084882,281.563328 233.872963,283.307869 C233.872963,283.307885 233.656114,281.121665 231.812847,282.534987 Z" id="Shape"></path>
        </g>
    </g>
</svg>