<?xml version="1.0" encoding="UTF-8"?>
<svg width="20px" height="16px" viewBox="0 0 20 16" version="1.1" xmlns="http://www.w3.org/2000/svg" xmlns:xlink="http://www.w3.org/1999/xlink">
    <!-- Generator: Sketch 48.1 (47250) - http://www.bohemiancoding.com/sketch -->
    <title>Shape</title>
    <desc>Created with Sketch.</desc>
    <defs></defs>
    <g id="Resource-网址导航" stroke="none" stroke-width="1" fill="none" fill-rule="evenodd" transform="translate(-1228.000000, -1666.000000)">
        <g id="Group-9" transform="translate(0.000000, 1452.000000)" fill="#FFFFFF" fill-rule="nonzero">
            <path d="M1247.73053,215.852406 C1247.00269,216.165233 1246.22333,216.377699 1245.40342,216.471654 C1246.24306,215.983729 1246.88431,215.21394 1247.18684,214.294677 C1246.40529,214.745233 1245.53825,215.067669 1244.6131,215.250241 C1243.8765,214.482586 1242.82311,214 1241.659,214 C1239.42288,214 1237.60986,215.765925 1237.60986,217.942902 C1237.60986,218.254662 1237.64823,218.554677 1237.71509,218.840812 C1234.35433,218.679594 1231.36844,217.11012 1229.37346,214.726015 C1229.02599,215.307895 1228.8243,215.983729 1228.8243,216.704406 C1228.8243,218.071023 1229.53898,219.281759 1230.62635,219.984286 C1229.961,219.962932 1229.33839,219.793173 1228.7947,219.493158 C1228.79361,219.510241 1228.79361,219.530526 1228.79361,219.546541 C1228.79361,221.452331 1230.1879,223.045293 1232.04147,223.412571 C1231.70057,223.499053 1231.34213,223.547098 1230.97273,223.547098 C1230.71295,223.547098 1230.46084,223.525744 1230.21201,223.474496 C1230.7272,225.049308 1232.22343,226.184241 1233.9937,226.212 C1232.60927,227.272195 1230.86312,227.901053 1228.96789,227.901053 C1228.64124,227.901053 1228.31569,227.879699 1228,227.842331 C1229.79109,228.968722 1231.91761,229.62 1234.20525,229.62 C1241.65024,229.62 1245.7224,223.61009 1245.7224,218.404135 C1245.7224,218.232241 1245.7202,218.062481 1245.71144,217.892722 C1246.50175,217.335398 1247.18684,216.640346 1247.73053,215.852406 Z" id="Shape"></path>
        </g>
    </g>
</svg>