<?xml version="1.0" encoding="UTF-8"?>
<svg width="20px" height="17px" viewBox="0 0 20 17" version="1.1" xmlns="http://www.w3.org/2000/svg" xmlns:xlink="http://www.w3.org/1999/xlink">
    <!-- Generator: Sketch 48.1 (47250) - http://www.bohemiancoding.com/sketch -->
    <title>微信</title>
    <desc>Created with Sketch.</desc>
    <defs></defs>
    <g id="Resource-网址导航" stroke="none" stroke-width="1" fill="none" fill-rule="evenodd" transform="translate(-1080.000000, -1628.000000)">
        <g id="Group-9" transform="translate(0.000000, 1452.000000)" fill="#FFFFFF" fill-rule="nonzero">
            <g id="微信" transform="translate(1080.000000, 176.000000)">
                <path d="M13.9128444,4.98533146 C14.1488843,4.98533146 14.381746,5.00317222 14.6153846,5.02840413 C13.9858976,2.14299858 10.8529179,0 7.27474418,0 C3.27588441,0 0,2.68197463 0,6.08923375 C0,8.05528452 1.08915988,9.66959447 2.91054746,10.9236139 L2.18392292,13.0769231 L4.72753252,11.8228573 C5.63684906,11.9982991 6.36625162,12.1808076 7.27474416,12.1808076 C7.50320334,12.1808076 7.72961431,12.1705897 7.95282345,12.1539306 C7.81194343,11.6751034 7.7280134,11.1741027 7.7280134,10.6518321 C7.72963789,7.52418621 10.4579171,4.98533146 13.9128444,4.98533146 Z M10.00227,3.04460527 C10.5518293,3.04460527 10.9131404,3.40019229 10.9131404,3.93831106 C10.9131404,4.47446038 10.5518057,4.83363873 10.00227,4.83363873 C9.45869066,4.83363873 8.91150926,4.47446038 8.91150926,3.93831106 C8.91150924,3.39863992 9.45746644,3.04460527 10.00227,3.04460527 Z M4.91100148,4.83363873 C4.36502075,4.83363873 3.81543797,4.47446038 3.81543797,3.93831106 C3.81543797,3.40016912 4.36502075,3.04460527 4.91100148,3.04460527 C5.45698221,3.04460527 5.81949402,3.39863992 5.81949402,3.93831106 C5.81949402,4.47446038 5.45698221,4.83363873 4.91100148,4.83363873 Z" id="Shape"></path>
                <path d="M20,10.4203292 C20,7.64589466 17.2838572,5.38461538 14.2335917,5.38461538 C11.0035473,5.38461538 8.46153846,7.64744443 8.46153846,10.4203292 C8.46153846,13.2024452 11.0050189,15.4567842 14.2335917,15.4567842 C14.9100301,15.4567842 15.591674,15.2836811 16.2703308,15.1097918 L18.131069,16.1538462 L17.6209233,14.4188167 C18.9835084,13.3717301 20,11.9860289 20,10.4203292 Z M12.3616076,9.55169142 C12.0245196,9.55169142 11.6829508,9.2085622 11.6829508,8.85770657 C11.6829508,8.51224145 12.0245416,8.16448537 12.3616076,8.16448537 C12.8769809,8.16448537 13.2110818,8.51224145 13.2110818,8.85770657 C13.2110818,9.2085622 12.8769809,9.55169142 12.3616076,9.55169142 Z M16.0950547,9.55169142 C15.7609538,9.55169142 15.4201099,9.2085622 15.4201099,8.85770657 C15.4201099,8.51224145 15.7594383,8.16448537 16.0950547,8.16448537 C16.6059253,8.16448537 16.9445288,8.51224145 16.9445288,8.85770657 C16.9445069,9.2085622 16.6059033,9.55169142 16.0950547,9.55169142 Z" id="Shape"></path>
            </g>
        </g>
    </g>
</svg>